<?xml version="1.0" encoding="UTF-8" standalone="no"?>
<!DOCTYPE svg PUBLIC "-//W3C//DTD SVG 1.1//EN"
 "http://www.w3.org/Graphics/SVG/1.1/DTD/svg11.dtd">
<!-- Generated by graphviz version 2.26.3 (20100126.1600)
 -->
<!-- Pages: 1 -->
<svg width="3448pt" height="732pt"
 viewBox="0.00 0.00 3448.00 732.00" xmlns="http://www.w3.org/2000/svg" xmlns:xlink="http://www.w3.org/1999/xlink">
<g id="graph1" class="graph" transform="scale(1 1) rotate(0) translate(4 728)">
<polygon fill="white" stroke="white" points="-4,5 -4,-728 3445,-728 3445,5 -4,5"/>
<!-- radio&#45;hf&#45;port -->
<g id="node1" class="node"><title>radio&#45;hf&#45;port</title>
<ellipse fill="none" stroke="blue" cx="341" cy="-706" rx="75.9375" ry="18"/>
<text text-anchor="middle" x="341" y="-701.9" font-family="Times Roman,serif" font-size="14.00" fill="navy">radio&#45;hf&#45;port</text>
</g>
<!-- vhf&#45;rg&#45;213 -->
<g id="node2" class="node"><title>vhf&#45;rg&#45;213</title>
<ellipse fill="none" stroke="blue" cx="1291" cy="-652" rx="63.9292" ry="18"/>
<text text-anchor="middle" x="1291" y="-647.9" font-family="Times Roman,serif" font-size="14.00" fill="navy">vhf&#45;rg&#45;213</text>
</g>
<!-- antenna&#45;x&#45;300n -->
<g id="node18" class="node"><title>antenna&#45;x&#45;300n</title>
<ellipse fill="none" stroke="blue" cx="1529" cy="-652" rx="91.0296" ry="18"/>
<text text-anchor="middle" x="1529" y="-647.9" font-family="Times Roman,serif" font-size="14.00" fill="navy">antenna&#45;x&#45;300n</text>
</g>
<!-- vhf&#45;rg&#45;213&#45;&gt;antenna&#45;x&#45;300n -->
<g id="edge72" class="edge"><title>vhf&#45;rg&#45;213&#45;&gt;antenna&#45;x&#45;300n</title>
<path fill="none" stroke="darkgreen" d="M1355.09,-652C1377.48,-652 1403.19,-652 1427.85,-652"/>
<polygon fill="darkgreen" stroke="darkgreen" points="1427.97,-655.5 1437.97,-652 1427.97,-648.5 1427.97,-655.5"/>
</g>
<!-- vhf&#45;coax&#45;radio&#45;selector -->
<g id="node3" class="node"><title>vhf&#45;coax&#45;radio&#45;selector</title>
<ellipse fill="none" stroke="blue" cx="633" cy="-652" rx="128.053" ry="18"/>
<text text-anchor="middle" x="633" y="-647.9" font-family="Times Roman,serif" font-size="14.00" fill="navy">vhf&#45;coax&#45;radio&#45;selector</text>
</g>
<!-- vhf&#45;antenna&#45;grounding&#45;selector -->
<g id="node32" class="node"><title>vhf&#45;antenna&#45;grounding&#45;selector</title>
<ellipse fill="none" stroke="blue" cx="971" cy="-652" rx="171.831" ry="18"/>
<text text-anchor="middle" x="971" y="-647.9" font-family="Times Roman,serif" font-size="14.00" fill="navy">vhf&#45;antenna&#45;grounding&#45;selector</text>
</g>
<!-- vhf&#45;coax&#45;radio&#45;selector&#45;&gt;vhf&#45;antenna&#45;grounding&#45;selector -->
<g id="edge68" class="edge"><title>vhf&#45;coax&#45;radio&#45;selector&#45;&gt;vhf&#45;antenna&#45;grounding&#45;selector</title>
<path fill="none" stroke="darkgreen" d="M761.748,-652C770.49,-652 779.386,-652 788.333,-652"/>
<polygon fill="darkgreen" stroke="darkgreen" points="788.45,-655.5 798.45,-652 788.45,-648.5 788.45,-655.5"/>
</g>
<!-- slave&#45;ethernet&#45;port -->
<g id="node4" class="node"><title>slave&#45;ethernet&#45;port</title>
<ellipse fill="none" stroke="blue" cx="1291" cy="-234" rx="111.181" ry="18"/>
<text text-anchor="middle" x="1291" y="-229.9" font-family="Times Roman,serif" font-size="14.00" fill="navy">slave&#45;ethernet&#45;port</text>
</g>
<!-- wifi&#45;slave -->
<g id="node16" class="node"><title>wifi&#45;slave</title>
<ellipse fill="none" stroke="blue" cx="1529" cy="-234" rx="59.7599" ry="18"/>
<text text-anchor="middle" x="1529" y="-229.9" font-family="Times Roman,serif" font-size="14.00" fill="navy">wifi&#45;slave</text>
</g>
<!-- slave&#45;ethernet&#45;port&#45;&gt;wifi&#45;slave -->
<g id="edge82" class="edge"><title>slave&#45;ethernet&#45;port&#45;&gt;wifi&#45;slave</title>
<path fill="none" stroke="darkgreen" d="M1402.33,-234C1421.55,-234 1441.03,-234 1458.77,-234"/>
<polygon fill="darkgreen" stroke="darkgreen" points="1458.99,-237.5 1468.99,-234 1458.99,-230.5 1458.99,-237.5"/>
</g>
<!-- remote&#45;rig master -->
<g id="node5" class="node"><title>remote&#45;rig master</title>
<ellipse fill="none" stroke="blue" cx="2215" cy="-234" rx="105.818" ry="18"/>
<text text-anchor="middle" x="2215" y="-229.9" font-family="Times Roman,serif" font-size="14.00" fill="navy">remote&#45;rig master</text>
</g>
<!-- master&#45;12v&#45;port -->
<g id="node12" class="node"><title>master&#45;12v&#45;port</title>
<ellipse fill="none" stroke="blue" cx="2495" cy="-450" rx="94.004" ry="18"/>
<text text-anchor="middle" x="2495" y="-445.9" font-family="Times Roman,serif" font-size="14.00" fill="navy">master&#45;12v&#45;port</text>
</g>
<!-- remote&#45;rig master&#45;&gt;master&#45;12v&#45;port -->
<g id="edge60" class="edge"><title>remote&#45;rig master&#45;&gt;master&#45;12v&#45;port</title>
<path fill="none" stroke="darkgreen" d="M2223.06,-252.057C2241.16,-290.367 2288.92,-379.805 2358,-423 2370.19,-430.624 2384.09,-436.164 2398.24,-440.177"/>
<polygon fill="darkgreen" stroke="darkgreen" points="2397.51,-443.602 2408.07,-442.718 2399.26,-436.825 2397.51,-443.602"/>
</g>
<!-- master&#45;io&#45;port -->
<g id="node17" class="node"><title>master&#45;io&#45;port</title>
<ellipse fill="none" stroke="blue" cx="2495" cy="-396" rx="84.9707" ry="18"/>
<text text-anchor="middle" x="2495" y="-391.9" font-family="Times Roman,serif" font-size="14.00" fill="navy">master&#45;io&#45;port</text>
</g>
<!-- remote&#45;rig master&#45;&gt;master&#45;io&#45;port -->
<g id="edge62" class="edge"><title>remote&#45;rig master&#45;&gt;master&#45;io&#45;port</title>
<path fill="none" stroke="darkgreen" d="M2228.57,-252.239C2251.64,-281.833 2301.54,-339.923 2358,-369 2373.13,-376.794 2390.27,-382.344 2407.18,-386.294"/>
<polygon fill="darkgreen" stroke="darkgreen" points="2406.57,-389.745 2417.09,-388.44 2408.05,-382.903 2406.57,-389.745"/>
</g>
<!-- master&#45;com2&#45;port -->
<g id="node25" class="node"><title>master&#45;com2&#45;port</title>
<ellipse fill="none" stroke="blue" cx="2495" cy="-342" rx="103.037" ry="18"/>
<text text-anchor="middle" x="2495" y="-337.9" font-family="Times Roman,serif" font-size="14.00" fill="navy">master&#45;com2&#45;port</text>
</g>
<!-- remote&#45;rig master&#45;&gt;master&#45;com2&#45;port -->
<g id="edge56" class="edge"><title>remote&#45;rig master&#45;&gt;master&#45;com2&#45;port</title>
<path fill="none" stroke="darkgreen" d="M2240.13,-251.563C2267.78,-270.068 2314.12,-298.736 2358,-315 2372.78,-320.477 2388.88,-324.914 2404.69,-328.485"/>
<polygon fill="darkgreen" stroke="darkgreen" points="2403.97,-331.91 2414.48,-330.599 2405.44,-325.067 2403.97,-331.91"/>
</g>
<!-- master&#45;microphone&#45;port -->
<g id="node26" class="node"><title>master&#45;microphone&#45;port</title>
<ellipse fill="none" stroke="blue" cx="2495" cy="-288" rx="136.892" ry="18"/>
<text text-anchor="middle" x="2495" y="-283.9" font-family="Times Roman,serif" font-size="14.00" fill="navy">master&#45;microphone&#45;port</text>
</g>
<!-- remote&#45;rig master&#45;&gt;master&#45;microphone&#45;port -->
<g id="edge50" class="edge"><title>remote&#45;rig master&#45;&gt;master&#45;microphone&#45;port</title>
<path fill="none" stroke="darkgreen" d="M2285.29,-247.557C2322.48,-254.728 2368.47,-263.599 2407.9,-271.203"/>
<polygon fill="darkgreen" stroke="darkgreen" points="2407.3,-274.65 2417.78,-273.107 2408.62,-267.777 2407.3,-274.65"/>
</g>
<!-- master&#45;pad&#45;port -->
<g id="node27" class="node"><title>master&#45;pad&#45;port</title>
<ellipse fill="none" stroke="blue" cx="2495" cy="-234" rx="95.1989" ry="18"/>
<text text-anchor="middle" x="2495" y="-229.9" font-family="Times Roman,serif" font-size="14.00" fill="navy">master&#45;pad&#45;port</text>
</g>
<!-- remote&#45;rig master&#45;&gt;master&#45;pad&#45;port -->
<g id="edge58" class="edge"><title>remote&#45;rig master&#45;&gt;master&#45;pad&#45;port</title>
<path fill="none" stroke="darkgreen" d="M2321.65,-234C2343.9,-234 2367.34,-234 2389.55,-234"/>
<polygon fill="darkgreen" stroke="darkgreen" points="2389.65,-237.5 2399.65,-234 2389.65,-230.5 2389.65,-237.5"/>
</g>
<!-- master&#45;com1&#45;port -->
<g id="node28" class="node"><title>master&#45;com1&#45;port</title>
<ellipse fill="none" stroke="blue" cx="2495" cy="-180" rx="103.037" ry="18"/>
<text text-anchor="middle" x="2495" y="-175.9" font-family="Times Roman,serif" font-size="14.00" fill="navy">master&#45;com1&#45;port</text>
</g>
<!-- remote&#45;rig master&#45;&gt;master&#45;com1&#45;port -->
<g id="edge48" class="edge"><title>remote&#45;rig master&#45;&gt;master&#45;com1&#45;port</title>
<path fill="none" stroke="darkgreen" d="M2285.29,-220.443C2324.95,-212.795 2374.63,-203.214 2415.68,-195.298"/>
<polygon fill="darkgreen" stroke="darkgreen" points="2416.49,-198.706 2425.65,-193.375 2415.16,-191.832 2416.49,-198.706"/>
</g>
<!-- master&#45;usb&#45;port -->
<g id="node29" class="node"><title>master&#45;usb&#45;port</title>
<ellipse fill="none" stroke="blue" cx="2495" cy="-126" rx="94.004" ry="18"/>
<text text-anchor="middle" x="2495" y="-121.9" font-family="Times Roman,serif" font-size="14.00" fill="navy">master&#45;usb&#45;port</text>
</g>
<!-- remote&#45;rig master&#45;&gt;master&#45;usb&#45;port -->
<g id="edge46" class="edge"><title>remote&#45;rig master&#45;&gt;master&#45;usb&#45;port</title>
<path fill="none" stroke="darkgreen" d="M2240.13,-216.437C2267.78,-197.932 2314.12,-169.264 2358,-153 2373.96,-147.083 2391.47,-142.381 2408.49,-138.672"/>
<polygon fill="darkgreen" stroke="darkgreen" points="2409.35,-142.067 2418.43,-136.602 2407.93,-135.214 2409.35,-142.067"/>
</g>
<!-- master&#45;speaker&#45;port -->
<g id="node38" class="node"><title>master&#45;speaker&#45;port</title>
<ellipse fill="none" stroke="blue" cx="2495" cy="-72" rx="116.045" ry="18"/>
<text text-anchor="middle" x="2495" y="-67.9" font-family="Times Roman,serif" font-size="14.00" fill="navy">master&#45;speaker&#45;port</text>
</g>
<!-- remote&#45;rig master&#45;&gt;master&#45;speaker&#45;port -->
<g id="edge54" class="edge"><title>remote&#45;rig master&#45;&gt;master&#45;speaker&#45;port</title>
<path fill="none" stroke="darkgreen" d="M2228.57,-215.761C2251.64,-186.167 2301.54,-128.077 2358,-99 2368.8,-93.4383 2380.62,-89.0194 2392.65,-85.509"/>
<polygon fill="darkgreen" stroke="darkgreen" points="2393.59,-88.8805 2402.32,-82.884 2391.75,-82.1248 2393.59,-88.8805"/>
</g>
<!-- master&#45;ttl&#45;port -->
<g id="node41" class="node"><title>master&#45;ttl&#45;port</title>
<ellipse fill="none" stroke="blue" cx="2495" cy="-18" rx="87.0549" ry="18"/>
<text text-anchor="middle" x="2495" y="-13.9" font-family="Times Roman,serif" font-size="14.00" fill="navy">master&#45;ttl&#45;port</text>
</g>
<!-- remote&#45;rig master&#45;&gt;master&#45;ttl&#45;port -->
<g id="edge52" class="edge"><title>remote&#45;rig master&#45;&gt;master&#45;ttl&#45;port</title>
<path fill="none" stroke="darkgreen" d="M2223.06,-215.943C2241.16,-177.633 2288.92,-88.1948 2358,-45 2371.53,-36.538 2387.16,-30.6427 2402.92,-26.5536"/>
<polygon fill="darkgreen" stroke="darkgreen" points="2403.81,-29.9412 2412.73,-24.2341 2402.2,-23.129 2403.81,-29.9412"/>
</g>
<!-- radio&#45;vhf&#45;port -->
<g id="node6" class="node"><title>radio&#45;vhf&#45;port</title>
<ellipse fill="none" stroke="blue" cx="341" cy="-652" rx="81.9961" ry="18"/>
<text text-anchor="middle" x="341" y="-647.9" font-family="Times Roman,serif" font-size="14.00" fill="navy">radio&#45;vhf&#45;port</text>
</g>
<!-- radio&#45;vhf&#45;port&#45;&gt;vhf&#45;coax&#45;radio&#45;selector -->
<g id="edge66" class="edge"><title>radio&#45;vhf&#45;port&#45;&gt;vhf&#45;coax&#45;radio&#45;selector</title>
<path fill="none" stroke="darkgreen" d="M423.115,-652C445.28,-652 469.891,-652 494.234,-652"/>
<polygon fill="darkgreen" stroke="darkgreen" points="494.273,-655.5 504.273,-652 494.273,-648.5 494.273,-655.5"/>
</g>
<!-- radio&#45;power&#45;port -->
<g id="node7" class="node"><title>radio&#45;power&#45;port</title>
<ellipse fill="none" stroke="blue" cx="341" cy="-598" rx="97.9784" ry="18"/>
<text text-anchor="middle" x="341" y="-593.9" font-family="Times Roman,serif" font-size="14.00" fill="navy">radio&#45;power&#45;port</text>
</g>
<!-- radio&#45;speaker&#45;port -->
<g id="node8" class="node"><title>radio&#45;speaker&#45;port</title>
<ellipse fill="none" stroke="blue" cx="341" cy="-544" rx="105.818" ry="18"/>
<text text-anchor="middle" x="341" y="-539.9" font-family="Times Roman,serif" font-size="14.00" fill="navy">radio&#45;speaker&#45;port</text>
</g>
<!-- slave&#45;speaker&#45;port -->
<g id="node14" class="node"><title>slave&#45;speaker&#45;port</title>
<ellipse fill="none" stroke="blue" cx="633" cy="-531" rx="105.818" ry="18"/>
<text text-anchor="middle" x="633" y="-526.9" font-family="Times Roman,serif" font-size="14.00" fill="navy">slave&#45;speaker&#45;port</text>
</g>
<!-- radio&#45;speaker&#45;port&#45;&gt;slave&#45;speaker&#45;port -->
<g id="edge78" class="edge"><title>radio&#45;speaker&#45;port&#45;&gt;slave&#45;speaker&#45;port</title>
<path fill="none" stroke="darkgreen" d="M444.359,-539.398C468.728,-538.313 494.834,-537.151 519.619,-536.048"/>
<polygon fill="darkgreen" stroke="darkgreen" points="519.945,-539.537 529.78,-535.595 519.634,-532.544 519.945,-539.537"/>
</g>
<!-- slave&#45;usb&#45;port -->
<g id="node9" class="node"><title>slave&#45;usb&#45;port</title>
<ellipse fill="none" stroke="blue" cx="633" cy="-234" rx="84.7756" ry="18"/>
<text text-anchor="middle" x="633" y="-229.9" font-family="Times Roman,serif" font-size="14.00" fill="navy">slave&#45;usb&#45;port</text>
</g>
<!-- remote&#45;rig slave -->
<g id="node30" class="node"><title>remote&#45;rig slave</title>
<ellipse fill="none" stroke="blue" cx="971" cy="-234" rx="96.0882" ry="18"/>
<text text-anchor="middle" x="971" y="-229.9" font-family="Times Roman,serif" font-size="14.00" fill="navy">remote&#45;rig slave</text>
</g>
<!-- slave&#45;usb&#45;port&#45;&gt;remote&#45;rig slave -->
<g id="edge26" class="edge"><title>slave&#45;usb&#45;port&#45;&gt;remote&#45;rig slave</title>
<path fill="none" stroke="darkgreen" d="M718.292,-234C762.566,-234 817.094,-234 864.152,-234"/>
<polygon fill="darkgreen" stroke="darkgreen" points="864.383,-237.5 874.383,-234 864.383,-230.5 864.383,-237.5"/>
</g>
<!-- head&#45;speaker&#45;port -->
<g id="node10" class="node"><title>head&#45;speaker&#45;port</title>
<ellipse fill="none" stroke="blue" cx="3153" cy="-18" rx="104.927" ry="18"/>
<text text-anchor="middle" x="3153" y="-13.9" font-family="Times Roman,serif" font-size="14.00" fill="navy">head&#45;speaker&#45;port</text>
</g>
<!-- headphones -->
<g id="node23" class="node"><title>headphones</title>
<ellipse fill="none" stroke="blue" cx="3367" cy="-18" rx="72.9626" ry="18"/>
<text text-anchor="middle" x="3367" y="-13.9" font-family="Times Roman,serif" font-size="14.00" fill="navy">headphones</text>
</g>
<!-- head&#45;speaker&#45;port&#45;&gt;headphones -->
<g id="edge94" class="edge"><title>head&#45;speaker&#45;port&#45;&gt;headphones</title>
<path fill="none" stroke="darkgreen" d="M3258.12,-18C3266.69,-18 3275.27,-18 3283.65,-18"/>
<polygon fill="darkgreen" stroke="darkgreen" points="3283.75,-21.5001 3293.75,-18 3283.75,-14.5001 3283.75,-21.5001"/>
</g>
<!-- slave&#45;microphone&#45;port -->
<g id="node11" class="node"><title>slave&#45;microphone&#45;port</title>
<ellipse fill="none" stroke="blue" cx="633" cy="-423" rx="127.163" ry="18"/>
<text text-anchor="middle" x="633" y="-418.9" font-family="Times Roman,serif" font-size="14.00" fill="navy">slave&#45;microphone&#45;port</text>
</g>
<!-- slave&#45;microphone&#45;port&#45;&gt;remote&#45;rig slave -->
<g id="edge30" class="edge"><title>slave&#45;microphone&#45;port&#45;&gt;remote&#45;rig slave</title>
<path fill="none" stroke="darkgreen" d="M678.675,-406.165C703.766,-396.354 735.151,-383.148 762,-369 827.331,-334.574 898.61,-285.923 938.759,-257.399"/>
<polygon fill="darkgreen" stroke="darkgreen" points="940.974,-260.118 947.079,-251.459 936.907,-254.421 940.974,-260.118"/>
</g>
<!-- head&#45;ttl&#45;port -->
<g id="node13" class="node"><title>head&#45;ttl&#45;port</title>
<ellipse fill="none" stroke="blue" cx="2745" cy="-18" rx="75.9375" ry="18"/>
<text text-anchor="middle" x="2745" y="-13.9" font-family="Times Roman,serif" font-size="14.00" fill="navy">head&#45;ttl&#45;port</text>
</g>
<!-- ft&#45;857d&#45;head -->
<g id="node34" class="node"><title>ft&#45;857d&#45;head</title>
<ellipse fill="none" stroke="blue" cx="2935" cy="-18" rx="75.9375" ry="18"/>
<text text-anchor="middle" x="2935" y="-13.9" font-family="Times Roman,serif" font-size="14.00" fill="navy">ft&#45;857d&#45;head</text>
</g>
<!-- head&#45;ttl&#45;port&#45;&gt;ft&#45;857d&#45;head -->
<g id="edge24" class="edge"><title>head&#45;ttl&#45;port&#45;&gt;ft&#45;857d&#45;head</title>
<path fill="none" stroke="darkgreen" d="M2821.73,-18C2830.39,-18 2839.27,-18 2848.04,-18"/>
<polygon fill="darkgreen" stroke="darkgreen" points="2848.29,-21.5001 2858.29,-18 2848.29,-14.5001 2848.29,-21.5001"/>
</g>
<!-- slave&#45;speaker&#45;port&#45;&gt;remote&#45;rig slave -->
<g id="edge34" class="edge"><title>slave&#45;speaker&#45;port&#45;&gt;remote&#45;rig slave</title>
<path fill="none" stroke="darkgreen" d="M665.187,-513.688C692.195,-498.497 731.188,-474.982 762,-450 837.428,-388.845 913.635,-302.461 949.631,-259.843"/>
<polygon fill="darkgreen" stroke="darkgreen" points="952.531,-261.832 956.282,-251.923 947.17,-257.33 952.531,-261.832"/>
</g>
<!-- radio&#45;microphone&#45;port -->
<g id="node15" class="node"><title>radio&#45;microphone&#45;port</title>
<ellipse fill="none" stroke="blue" cx="341" cy="-490" rx="127.163" ry="18"/>
<text text-anchor="middle" x="341" y="-485.9" font-family="Times Roman,serif" font-size="14.00" fill="navy">radio&#45;microphone&#45;port</text>
</g>
<!-- radio&#45;microphone&#45;port&#45;&gt;slave&#45;microphone&#45;port -->
<g id="edge76" class="edge"><title>radio&#45;microphone&#45;port&#45;&gt;slave&#45;microphone&#45;port</title>
<path fill="none" stroke="darkgreen" d="M412.944,-475.076C430.945,-471.24 450.196,-467.05 468,-463 498.209,-456.128 531.427,-448.157 560.09,-441.146"/>
<polygon fill="darkgreen" stroke="darkgreen" points="561.147,-444.491 570.026,-438.71 559.48,-437.692 561.147,-444.491"/>
</g>
<!-- wifi&#45;master -->
<g id="node45" class="node"><title>wifi&#45;master</title>
<ellipse fill="none" stroke="blue" cx="1726" cy="-234" rx="70.1831" ry="18"/>
<text text-anchor="middle" x="1726" y="-229.9" font-family="Times Roman,serif" font-size="14.00" fill="navy">wifi&#45;master</text>
</g>
<!-- wifi&#45;slave&#45;&gt;wifi&#45;master -->
<g id="edge84" class="edge"><title>wifi&#45;slave&#45;&gt;wifi&#45;master</title>
<path fill="none" stroke="darkgreen" d="M1589.18,-234C1607.02,-234 1626.84,-234 1645.74,-234"/>
<polygon fill="darkgreen" stroke="darkgreen" points="1645.83,-237.5 1655.83,-234 1645.83,-230.5 1645.83,-237.5"/>
</g>
<!-- radio&#45;acc&#45;port -->
<g id="node19" class="node"><title>radio&#45;acc&#45;port</title>
<ellipse fill="none" stroke="blue" cx="341" cy="-436" rx="82.8866" ry="18"/>
<text text-anchor="middle" x="341" y="-431.9" font-family="Times Roman,serif" font-size="14.00" fill="navy">radio&#45;acc&#45;port</text>
</g>
<!-- slave&#45;12v&#45;port -->
<g id="node20" class="node"><title>slave&#45;12v&#45;port</title>
<ellipse fill="none" stroke="blue" cx="633" cy="-180" rx="84.7756" ry="18"/>
<text text-anchor="middle" x="633" y="-175.9" font-family="Times Roman,serif" font-size="14.00" fill="navy">slave&#45;12v&#45;port</text>
</g>
<!-- slave&#45;12v&#45;port&#45;&gt;remote&#45;rig slave -->
<g id="edge40" class="edge"><title>slave&#45;12v&#45;port&#45;&gt;remote&#45;rig slave</title>
<path fill="none" stroke="darkgreen" d="M700.993,-190.863C754.732,-199.448 829.993,-211.472 887.41,-220.645"/>
<polygon fill="darkgreen" stroke="darkgreen" points="887.124,-224.144 897.551,-222.266 888.229,-217.232 887.124,-224.144"/>
</g>
<!-- radio&#45;key&#45;port -->
<g id="node21" class="node"><title>radio&#45;key&#45;port</title>
<ellipse fill="none" stroke="blue" cx="341" cy="-382" rx="84.0808" ry="18"/>
<text text-anchor="middle" x="341" y="-377.9" font-family="Times Roman,serif" font-size="14.00" fill="navy">radio&#45;key&#45;port</text>
</g>
<!-- radio&#45;cat&#45;port -->
<g id="node22" class="node"><title>radio&#45;cat&#45;port</title>
<ellipse fill="none" stroke="blue" cx="341" cy="-328" rx="82.1898" ry="18"/>
<text text-anchor="middle" x="341" y="-323.9" font-family="Times Roman,serif" font-size="14.00" fill="navy">radio&#45;cat&#45;port</text>
</g>
<!-- slave&#45;com2&#45;port -->
<g id="node40" class="node"><title>slave&#45;com2&#45;port</title>
<ellipse fill="none" stroke="blue" cx="633" cy="-342" rx="94.004" ry="18"/>
<text text-anchor="middle" x="633" y="-337.9" font-family="Times Roman,serif" font-size="14.00" fill="navy">slave&#45;com2&#45;port</text>
</g>
<!-- radio&#45;cat&#45;port&#45;&gt;slave&#45;com2&#45;port -->
<g id="edge80" class="edge"><title>radio&#45;cat&#45;port&#45;&gt;slave&#45;com2&#45;port</title>
<path fill="none" stroke="darkgreen" d="M421.951,-331.881C455.669,-333.498 495.207,-335.393 530.889,-337.104"/>
<polygon fill="darkgreen" stroke="darkgreen" points="531.177,-340.622 541.334,-337.605 531.513,-333.63 531.177,-340.622"/>
</g>
<!-- radio&#45;ttl&#45;port -->
<g id="node24" class="node"><title>radio&#45;ttl&#45;port</title>
<ellipse fill="none" stroke="blue" cx="341" cy="-274" rx="78.0216" ry="18"/>
<text text-anchor="middle" x="341" y="-269.9" font-family="Times Roman,serif" font-size="14.00" fill="navy">radio&#45;ttl&#45;port</text>
</g>
<!-- slave&#45;ttl&#45;port -->
<g id="node44" class="node"><title>slave&#45;ttl&#45;port</title>
<ellipse fill="none" stroke="blue" cx="633" cy="-288" rx="78.0216" ry="18"/>
<text text-anchor="middle" x="633" y="-283.9" font-family="Times Roman,serif" font-size="14.00" fill="navy">slave&#45;ttl&#45;port</text>
</g>
<!-- radio&#45;ttl&#45;port&#45;&gt;slave&#45;ttl&#45;port -->
<g id="edge74" class="edge"><title>radio&#45;ttl&#45;port&#45;&gt;slave&#45;ttl&#45;port</title>
<path fill="none" stroke="darkgreen" d="M418.102,-277.697C457.355,-279.579 505.229,-281.874 545.82,-283.82"/>
<polygon fill="darkgreen" stroke="darkgreen" points="545.817,-287.324 555.973,-284.307 546.152,-280.332 545.817,-287.324"/>
</g>
<!-- microphone -->
<g id="node39" class="node"><title>microphone</title>
<ellipse fill="none" stroke="blue" cx="2745" cy="-288" rx="71.7694" ry="18"/>
<text text-anchor="middle" x="2745" y="-283.9" font-family="Times Roman,serif" font-size="14.00" fill="navy">microphone</text>
</g>
<!-- master&#45;microphone&#45;port&#45;&gt;microphone -->
<g id="edge88" class="edge"><title>master&#45;microphone&#45;port&#45;&gt;microphone</title>
<path fill="none" stroke="darkgreen" d="M2632.07,-288C2642.37,-288 2652.55,-288 2662.35,-288"/>
<polygon fill="darkgreen" stroke="darkgreen" points="2662.4,-291.5 2672.4,-288 2662.4,-284.5 2662.4,-291.5"/>
</g>
<!-- remote&#45;rig slave&#45;&gt;slave&#45;ethernet&#45;port -->
<g id="edge44" class="edge"><title>remote&#45;rig slave&#45;&gt;slave&#45;ethernet&#45;port</title>
<path fill="none" stroke="darkgreen" d="M1067.88,-234C1099.89,-234 1135.91,-234 1169.52,-234"/>
<polygon fill="darkgreen" stroke="darkgreen" points="1169.87,-237.5 1179.87,-234 1169.87,-230.5 1169.87,-237.5"/>
</g>
<!-- slave&#45;com1&#45;port -->
<g id="node31" class="node"><title>slave&#45;com1&#45;port</title>
<ellipse fill="none" stroke="blue" cx="633" cy="-126" rx="94.004" ry="18"/>
<text text-anchor="middle" x="633" y="-121.9" font-family="Times Roman,serif" font-size="14.00" fill="navy">slave&#45;com1&#45;port</text>
</g>
<!-- slave&#45;com1&#45;port&#45;&gt;remote&#45;rig slave -->
<g id="edge28" class="edge"><title>slave&#45;com1&#45;port&#45;&gt;remote&#45;rig slave</title>
<path fill="none" stroke="darkgreen" d="M702.142,-138.302C721.66,-142.359 742.804,-147.313 762,-153 818.942,-169.87 882.268,-195.412 924.131,-213.292"/>
<polygon fill="darkgreen" stroke="darkgreen" points="922.94,-216.59 933.51,-217.323 925.704,-210.158 922.94,-216.59"/>
</g>
<!-- vhf&#45;antenna&#45;grounding&#45;selector&#45;&gt;vhf&#45;rg&#45;213 -->
<g id="edge70" class="edge"><title>vhf&#45;antenna&#45;grounding&#45;selector&#45;&gt;vhf&#45;rg&#45;213</title>
<path fill="none" stroke="darkgreen" d="M1143.64,-652C1169.26,-652 1194.43,-652 1216.53,-652"/>
<polygon fill="darkgreen" stroke="darkgreen" points="1216.78,-655.5 1226.78,-652 1216.78,-648.5 1216.78,-655.5"/>
</g>
<!-- ft&#45;857d&#45;chassis -->
<g id="node33" class="node"><title>ft&#45;857d&#45;chassis</title>
<ellipse fill="none" stroke="blue" cx="89" cy="-463" rx="87.7515" ry="18"/>
<text text-anchor="middle" x="89" y="-458.9" font-family="Times Roman,serif" font-size="14.00" fill="navy">ft&#45;857d&#45;chassis</text>
</g>
<!-- ft&#45;857d&#45;chassis&#45;&gt;radio&#45;hf&#45;port -->
<g id="edge4" class="edge"><title>ft&#45;857d&#45;chassis&#45;&gt;radio&#45;hf&#45;port</title>
<path fill="none" stroke="darkgreen" d="M93.977,-481.228C106.474,-523.345 143.345,-627.719 214,-679 226.72,-688.232 241.933,-694.438 257.336,-698.582"/>
<polygon fill="darkgreen" stroke="darkgreen" points="256.92,-702.082 267.462,-701.018 258.558,-695.276 256.92,-702.082"/>
</g>
<!-- ft&#45;857d&#45;chassis&#45;&gt;radio&#45;vhf&#45;port -->
<g id="edge2" class="edge"><title>ft&#45;857d&#45;chassis&#45;&gt;radio&#45;vhf&#45;port</title>
<path fill="none" stroke="darkgreen" d="M97.441,-480.971C114.39,-514.954 155.967,-588.491 214,-625 226.479,-632.851 240.872,-638.452 255.386,-642.442"/>
<polygon fill="darkgreen" stroke="darkgreen" points="254.881,-645.923 265.431,-644.954 256.579,-639.132 254.881,-645.923"/>
</g>
<!-- ft&#45;857d&#45;chassis&#45;&gt;radio&#45;power&#45;port -->
<g id="edge12" class="edge"><title>ft&#45;857d&#45;chassis&#45;&gt;radio&#45;power&#45;port</title>
<path fill="none" stroke="darkgreen" d="M104.376,-481.055C126.186,-505.434 168.537,-548.417 214,-571 225.663,-576.793 238.53,-581.347 251.464,-584.925"/>
<polygon fill="darkgreen" stroke="darkgreen" points="250.791,-588.366 261.349,-587.476 252.54,-581.588 250.791,-588.366"/>
</g>
<!-- ft&#45;857d&#45;chassis&#45;&gt;radio&#45;speaker&#45;port -->
<g id="edge6" class="edge"><title>ft&#45;857d&#45;chassis&#45;&gt;radio&#45;speaker&#45;port</title>
<path fill="none" stroke="darkgreen" d="M122.786,-479.771C147.548,-491.522 182.243,-506.875 214,-517 227.872,-521.423 242.83,-525.333 257.441,-528.707"/>
<polygon fill="darkgreen" stroke="darkgreen" points="256.961,-532.186 267.484,-530.957 258.491,-525.355 256.961,-532.186"/>
</g>
<!-- ft&#45;857d&#45;chassis&#45;&gt;radio&#45;microphone&#45;port -->
<g id="edge8" class="edge"><title>ft&#45;857d&#45;chassis&#45;&gt;radio&#45;microphone&#45;port</title>
<path fill="none" stroke="darkgreen" d="M167.353,-471.395C186.971,-473.497 208.396,-475.792 229.291,-478.031"/>
<polygon fill="darkgreen" stroke="darkgreen" points="229.179,-481.539 239.495,-479.124 229.925,-474.579 229.179,-481.539"/>
</g>
<!-- ft&#45;857d&#45;chassis&#45;&gt;radio&#45;acc&#45;port -->
<g id="edge18" class="edge"><title>ft&#45;857d&#45;chassis&#45;&gt;radio&#45;acc&#45;port</title>
<path fill="none" stroke="darkgreen" d="M167.353,-454.605C195.528,-451.586 227.431,-448.168 256.135,-445.093"/>
<polygon fill="darkgreen" stroke="darkgreen" points="256.573,-448.566 266.143,-444.02 255.827,-441.606 256.573,-448.566"/>
</g>
<!-- ft&#45;857d&#45;chassis&#45;&gt;radio&#45;key&#45;port -->
<g id="edge20" class="edge"><title>ft&#45;857d&#45;chassis&#45;&gt;radio&#45;key&#45;port</title>
<path fill="none" stroke="darkgreen" d="M122.786,-446.229C147.548,-434.478 182.243,-419.125 214,-409 230.427,-403.763 248.375,-399.245 265.469,-395.484"/>
<polygon fill="darkgreen" stroke="darkgreen" points="266.37,-398.871 275.417,-393.357 264.906,-392.025 266.37,-398.871"/>
</g>
<!-- ft&#45;857d&#45;chassis&#45;&gt;radio&#45;cat&#45;port -->
<g id="edge16" class="edge"><title>ft&#45;857d&#45;chassis&#45;&gt;radio&#45;cat&#45;port</title>
<path fill="none" stroke="darkgreen" d="M104.376,-444.945C126.186,-420.566 168.537,-377.583 214,-355 227.828,-348.131 243.348,-343.005 258.665,-339.181"/>
<polygon fill="darkgreen" stroke="darkgreen" points="259.735,-342.526 268.681,-336.851 258.148,-335.708 259.735,-342.526"/>
</g>
<!-- ft&#45;857d&#45;chassis&#45;&gt;radio&#45;ttl&#45;port -->
<g id="edge10" class="edge"><title>ft&#45;857d&#45;chassis&#45;&gt;radio&#45;ttl&#45;port</title>
<path fill="none" stroke="darkgreen" d="M97.441,-445.029C114.39,-411.046 155.967,-337.509 214,-301 227.147,-292.729 242.418,-286.954 257.717,-282.932"/>
<polygon fill="darkgreen" stroke="darkgreen" points="258.84,-286.262 267.752,-280.532 257.212,-279.454 258.84,-286.262"/>
</g>
<!-- radio&#45;data&#45;port -->
<g id="node36" class="node"><title>radio&#45;data&#45;port</title>
<ellipse fill="none" stroke="blue" cx="341" cy="-220" rx="89.139" ry="18"/>
<text text-anchor="middle" x="341" y="-215.9" font-family="Times Roman,serif" font-size="14.00" fill="navy">radio&#45;data&#45;port</text>
</g>
<!-- ft&#45;857d&#45;chassis&#45;&gt;radio&#45;data&#45;port -->
<g id="edge14" class="edge"><title>ft&#45;857d&#45;chassis&#45;&gt;radio&#45;data&#45;port</title>
<path fill="none" stroke="darkgreen" d="M93.977,-444.772C106.474,-402.655 143.345,-298.281 214,-247 224.292,-239.53 236.216,-234.041 248.553,-230.023"/>
<polygon fill="darkgreen" stroke="darkgreen" points="249.899,-233.276 258.512,-227.106 247.931,-226.558 249.899,-233.276"/>
</g>
<!-- ft&#45;857d&#45;head&#45;&gt;head&#45;speaker&#45;port -->
<g id="edge22" class="edge"><title>ft&#45;857d&#45;head&#45;&gt;head&#45;speaker&#45;port</title>
<path fill="none" stroke="darkgreen" d="M3011.55,-18C3020.11,-18 3028.96,-18 3037.87,-18"/>
<polygon fill="darkgreen" stroke="darkgreen" points="3037.93,-21.5001 3047.93,-18 3037.93,-14.5001 3037.93,-21.5001"/>
</g>
<!-- master&#45;ethernet&#45;port -->
<g id="node35" class="node"><title>master&#45;ethernet&#45;port</title>
<ellipse fill="none" stroke="blue" cx="1952" cy="-234" rx="120.215" ry="18"/>
<text text-anchor="middle" x="1952" y="-229.9" font-family="Times Roman,serif" font-size="14.00" fill="navy">master&#45;ethernet&#45;port</text>
</g>
<!-- master&#45;ethernet&#45;port&#45;&gt;remote&#45;rig master -->
<g id="edge64" class="edge"><title>master&#45;ethernet&#45;port&#45;&gt;remote&#45;rig master</title>
<path fill="none" stroke="darkgreen" d="M2072.34,-234C2080.99,-234 2089.71,-234 2098.34,-234"/>
<polygon fill="darkgreen" stroke="darkgreen" points="2098.42,-237.5 2108.42,-234 2098.42,-230.5 2098.42,-237.5"/>
</g>
<!-- slave&#45;pad&#45;port -->
<g id="node37" class="node"><title>slave&#45;pad&#45;port</title>
<ellipse fill="none" stroke="blue" cx="633" cy="-72" rx="84.9707" ry="18"/>
<text text-anchor="middle" x="633" y="-67.9" font-family="Times Roman,serif" font-size="14.00" fill="navy">slave&#45;pad&#45;port</text>
</g>
<!-- slave&#45;pad&#45;port&#45;&gt;remote&#45;rig slave -->
<g id="edge38" class="edge"><title>slave&#45;pad&#45;port&#45;&gt;remote&#45;rig slave</title>
<path fill="none" stroke="darkgreen" d="M704.364,-82.0809C723.508,-86.0829 743.905,-91.5637 762,-99 831.275,-127.469 902.584,-179.302 941.394,-209.791"/>
<polygon fill="darkgreen" stroke="darkgreen" points="939.618,-212.85 949.628,-216.323 943.969,-207.366 939.618,-212.85"/>
</g>
<!-- speakers -->
<g id="node42" class="node"><title>speakers</title>
<ellipse fill="none" stroke="blue" cx="2745" cy="-72" rx="56.9803" ry="18"/>
<text text-anchor="middle" x="2745" y="-67.9" font-family="Times Roman,serif" font-size="14.00" fill="navy">speakers</text>
</g>
<!-- master&#45;speaker&#45;port&#45;&gt;speakers -->
<g id="edge92" class="edge"><title>master&#45;speaker&#45;port&#45;&gt;speakers</title>
<path fill="none" stroke="darkgreen" d="M2611.22,-72C2634.02,-72 2657.21,-72 2677.73,-72"/>
<polygon fill="darkgreen" stroke="darkgreen" points="2677.89,-75.5001 2687.89,-72 2677.89,-68.5001 2677.89,-75.5001"/>
</g>
<!-- slave&#45;com2&#45;port&#45;&gt;remote&#45;rig slave -->
<g id="edge36" class="edge"><title>slave&#45;com2&#45;port&#45;&gt;remote&#45;rig slave</title>
<path fill="none" stroke="darkgreen" d="M702.142,-329.698C721.66,-325.641 742.804,-320.687 762,-315 818.942,-298.13 882.268,-272.588 924.131,-254.708"/>
<polygon fill="darkgreen" stroke="darkgreen" points="925.704,-257.842 933.51,-250.677 922.94,-251.41 925.704,-257.842"/>
</g>
<!-- master&#45;ttl&#45;port&#45;&gt;head&#45;ttl&#45;port -->
<g id="edge90" class="edge"><title>master&#45;ttl&#45;port&#45;&gt;head&#45;ttl&#45;port</title>
<path fill="none" stroke="darkgreen" d="M2582.79,-18C2607.16,-18 2633.62,-18 2657.95,-18"/>
<polygon fill="darkgreen" stroke="darkgreen" points="2658.24,-21.5001 2668.24,-18 2658.24,-14.5001 2658.24,-21.5001"/>
</g>
<!-- slave&#45;io&#45;port -->
<g id="node43" class="node"><title>slave&#45;io&#45;port</title>
<ellipse fill="none" stroke="blue" cx="633" cy="-18" rx="75.9375" ry="18"/>
<text text-anchor="middle" x="633" y="-13.9" font-family="Times Roman,serif" font-size="14.00" fill="navy">slave&#45;io&#45;port</text>
</g>
<!-- slave&#45;io&#45;port&#45;&gt;remote&#45;rig slave -->
<g id="edge42" class="edge"><title>slave&#45;io&#45;port&#45;&gt;remote&#45;rig slave</title>
<path fill="none" stroke="darkgreen" d="M702.562,-25.6201C722.492,-29.6178 743.749,-35.7117 762,-45 842.763,-86.1017 916.076,-166.678 950.434,-208.083"/>
<polygon fill="darkgreen" stroke="darkgreen" points="947.924,-210.542 956.971,-216.057 953.338,-206.104 947.924,-210.542"/>
</g>
<!-- slave&#45;ttl&#45;port&#45;&gt;remote&#45;rig slave -->
<g id="edge32" class="edge"><title>slave&#45;ttl&#45;port&#45;&gt;remote&#45;rig slave</title>
<path fill="none" stroke="darkgreen" d="M697.77,-277.652C751.769,-269.025 829.06,-256.677 887.666,-247.314"/>
<polygon fill="darkgreen" stroke="darkgreen" points="888.319,-250.754 897.641,-245.72 887.214,-243.842 888.319,-250.754"/>
</g>
<!-- wifi&#45;master&#45;&gt;master&#45;ethernet&#45;port -->
<g id="edge86" class="edge"><title>wifi&#45;master&#45;&gt;master&#45;ethernet&#45;port</title>
<path fill="none" stroke="darkgreen" d="M1796.27,-234C1804.46,-234 1813.01,-234 1821.7,-234"/>
<polygon fill="darkgreen" stroke="darkgreen" points="1821.95,-237.5 1831.95,-234 1821.95,-230.5 1821.95,-237.5"/>
</g>
</g>
</svg>
